<?xml version="1.0" encoding="UTF-8"?>
<svg enableBackground="new 0 0 500 500">
<g id="a">
<path d="m54.194 257.7c20.295 22.975 45.983 31.902 58.651 59.817 8.684 19.135 4.61 41.789 11.026 61.798 8.794 27.426 37.686 45.85 66.487 45.949s56.255-16.219 73.345-39.401c5.605-7.603 10.463-16.151 18.32-21.393 11.253-7.507 25.85-6.542 39.323-7.743 33.221-2.96 64.703-21.615 83.253-49.333 0 0 48.122-56.781 14.056-138.01-9.902-23.611-25.953-45.295-48.087-58.162-22.134-12.868-60.65-13.174-83.44-1.507-24.23 12.404-40.339 39.591-66.897 45.563-15.394 3.461-31.287-1.037-46.789-3.979-21.745-4.128-43.911-6.692-65.868-3.904-25.843 3.282-51.91 16.24-63.965 45.374-4.222 10.203-5.641 21.396-3.958 32.31 1.508 9.787 5.322 22.184 14.543 32.623z" fill="#F5F5FF"/>
<path d="m253.9 89.933c-5.586-7.013-14.289-10.841-22.992-12.998-12.008-2.976-24.921-3.205-36.569.962s-21.865 13.05-26.16 24.652-1.928 25.786 6.984 34.367c4.994 4.808 12.007 7.394 18.902 7.375 4.089.436 8.266-.024 12.109-1.504 8.551-3.294 14.835-10.771 23.035-14.862 8.912-4.445 20.366-5.155 26.397-13.079 5.43-7.135 3.88-17.9-1.706-24.913z" fill="#F5F5FF"/>
<path d="m93.239 338.46c-.931-1.907-1.797-3.837-2.363-5.879-1.811-6.54-.495-13.999-4.007-19.806-4.41-7.293-15.273-8.624-22.663-4.379-7.39 4.246-11.616 12.552-13.418 20.882-1.11 5.13-1.433 10.594.324 15.539 2.044 5.751 6.693 10.22 11.762 13.618 5.636 3.778 12.218 6.551 19 6.321 3.02-.102 6.064-.903 8.75-2.306 2.118-.92 3.998-2.342 5.292-4.186.94-1.114 1.733-2.35 2.313-3.714 2.409-5.669.236-13.129-4.99-16.09z" fill="#F5F5FF"/>
<path d="m360.46 337.98h-211.74c-1.987 0-3.613-1.626-3.613-3.613v-135.86c0-1.987 1.626-3.613 3.613-3.613h211.74c1.987 0 3.613 1.626 3.613 3.613v135.86c0 1.987-1.626 3.613-3.613 3.613z" fill="#7B70EE"/>
<rect x="150.53" y="205.3" width="208.13" height="118.8" fill="#D5CBFB"/>
<path d="m255.9 199.67c0 .723-.586 1.308-1.309 1.308s-1.308-.586-1.308-1.308c0-.723.586-1.309 1.308-1.309.723.001 1.309.586 1.309 1.309z" fill="#D5CBFB"/>
<path d="m393.55 384.67-26.896-42.806c-1.518-2.416-4.171-3.882-7.024-3.882h-210.07c-2.853 0-5.506 1.466-7.024 3.882l-26.896 42.806c-.761 1.212-1.032 2.652-.794 4.043h279.49c.238-1.39-.032-2.831-.793-4.043z" fill="#D5CBFB"/>
<path d="m114.84 388.71c.049.287.112.572.205.852l.424 1.272c.786 2.357 2.991 3.946 5.475 3.946h267.28c2.484 0 4.69-1.59 5.475-3.946l.424-1.272c.093-.28.156-.566.205-.852h-279.49z" fill="#7B70EE"/>
<g fill="#7B70EE">
<polygon points="159.68 359.1 160.99 356.22 154.51 356.22 153.12 359.1"/>
<polygon points="171.1 350.9 171.74 349.4 172.33 348.02 166.06 348.02 164.75 350.9"/>
<polygon points="162.33 356.22 161.02 359.1 167.59 359.1 168.82 356.22"/>
<polygon points="161.54 355 162.85 352.12 156.48 352.12 155.1 355"/>
<polygon points="293.5 348.02 294.22 350.9 299.8 350.9 298.99 348.02"/>
<polygon points="193.5 356.22 192.62 359.1 199.25 359.1 200.09 356.22"/>
<polygon points="185.75 356.22 184.72 359.1 191.35 359.1 192.23 356.22"/>
<polygon points="177.97 356.22 176.82 359.1 183.42 359.1 184.46 356.22"/>
<polygon points="170.15 356.22 168.92 359.1 175.5 359.1 176.66 356.22"/>
<polygon points="300.26 348.02 301.06 350.9 306.27 350.9 305.43 348.02"/>
<polygon points="215.91 352.12 215.19 355 220.43 355 221.08 352.12"/>
<polygon points="272.76 348.02 273.25 350.9 279.3 350.9 278.73 348.02"/>
<polygon points="214.96 350.9 215.69 348.02 210.19 348.02 209.39 350.9"/>
<polygon points="208.12 350.9 208.92 348.02 203.76 348.02 202.92 350.9"/>
<polygon points="221.35 350.9 222 348.02 216.94 348.02 216.22 350.9"/>
<polygon points="306.7 348.02 307.54 350.9 314.06 350.9 313.17 348.02"/>
<polygon points="188.7 348.02 187.67 350.9 193.86 350.9 194.31 349.42 194.74 348.02"/>
<polygon points="186.37 350.9 187.41 348.02 181.25 348.02 180.1 350.9"/>
<polygon points="173.66 348.02 172.42 350.9 178.79 350.9 179.39 349.4 179.94 348.02"/>
<polygon points="287.19 348.02 287.84 350.9 292.96 350.9 292.24 348.02"/>
<polygon points="279.98 348.02 280.54 350.9 286.58 350.9 285.94 348.02"/>
<polygon points="201.64 350.9 202.49 348.02 196.01 348.02 195.13 350.9"/>
<polygon points="209.26 346.8 210.01 344.12 204.9 344.12 204.11 346.8"/>
<polygon points="202.84 346.8 203.63 344.12 197.2 344.12 196.38 346.8"/>
<polygon points="265.64 348.02 265.98 350.9 272.02 350.9 271.53 348.02"/>
<polygon points="229.45 346.8 229.98 344.12 224.12 344.12 223.52 346.8"/>
<polygon points="222.27 346.8 222.87 344.12 217.93 344.12 217.25 346.8"/>
<polygon points="215.99 346.8 216.67 344.12 211.28 344.12 210.53 346.8"/>
<polygon points="336.86 348.02 338.09 350.9 344.44 350.9 343.13 348.02"/>
<polygon points="172.85 346.8 174 344.12 167.83 344.12 166.61 346.8"/>
<polygon points="180.43 346.8 181.5 344.12 175.32 344.12 174.18 346.8"/>
<polygon points="195.11 346.8 195.93 344.12 190.11 344.12 189.14 346.8"/>
<polygon points="344.47 348.02 345.78 350.9 352.11 350.9 350.73 348.02"/>
<polygon points="187.85 346.8 188.81 344.12 182.82 344.12 181.74 346.8"/>
<polygon points="314.45 348.02 315.33 350.9 321.52 350.9 320.48 348.02"/>
<polygon points="228.83 356.22 228.26 359.1 234.53 359.1 235.02 356.22"/>
<polygon points="201.36 356.22 200.52 359.1 205.84 359.1 206.64 356.22"/>
<polygon points="221.4 356.22 220.76 359.1 227.02 359.1 227.59 356.22"/>
<polygon points="207.91 356.22 207.1 359.1 212.9 359.1 213.62 356.22"/>
<polygon points="214.88 356.22 214.16 359.1 219.51 359.1 220.15 356.22"/>
<polygon points="237.66 348.02 237.17 350.9 243.21 350.9 243.54 348.02"/>
<polygon points="236.63 346.8 237.09 344.12 231.22 344.12 230.69 346.8"/>
<polygon points="229.64 352.12 229.07 355 235.23 355 235.72 352.12"/>
<polygon points="329.24 348.02 330.4 350.9 336.76 350.9 335.53 348.02"/>
<polygon points="242.73 355 243.06 352.12 236.96 352.12 236.47 355"/>
<polygon points="321.78 348.02 322.81 350.9 329.08 350.9 327.93 348.02"/>
<polygon points="163.41 350.9 164.72 348.02 158.46 348.02 157.07 350.9"/>
<polygon points="302.08 359.1 301.28 356.22 295.56 356.22 296.29 359.1"/>
<polygon points="209.05 352.12 208.25 355 213.93 355 214.66 352.12"/>
<polygon points="312.8 346.8 311.98 344.12 305.56 344.12 306.34 346.8"/>
<polygon points="327.44 346.8 326.37 344.12 320.37 344.12 321.34 346.8"/>
<polygon points="320.04 346.8 319.08 344.12 313.26 344.12 314.08 346.8"/>
<polygon points="285.66 346.8 285.06 344.12 279.2 344.12 279.73 346.8"/>
<polygon points="278.49 346.8 277.96 344.12 272.1 344.12 272.56 346.8"/>
<polygon points="335.01 346.8 333.86 344.12 327.68 344.12 328.76 346.8"/>
<polygon points="298.65 346.8 297.91 344.12 292.52 344.12 293.19 346.8"/>
<polygon points="291.93 346.8 291.26 344.12 286.31 344.12 286.91 346.8"/>
<polygon points="295.03 359.1 294.3 356.22 289.03 356.22 289.68 359.1"/>
<polygon points="340.27 359.1 339.04 356.22 332.53 356.22 333.68 359.1"/>
<polygon points="324.47 359.1 323.43 356.22 316.96 356.22 317.84 359.1"/>
<polygon points="356.06 359.1 354.68 356.22 348.2 356.22 349.51 359.1"/>
<polygon points="348.17 359.1 346.86 356.22 340.36 356.22 341.59 359.1"/>
<polygon points="332.37 359.1 331.22 356.22 324.73 356.22 325.76 359.1"/>
<polygon points="288.43 359.1 287.78 356.22 281.6 356.22 282.16 359.1"/>
<polygon points="342.57 346.8 341.36 344.12 335.19 344.12 336.34 346.8"/>
<polygon points="353.47 350.9 359.32 350.9 357.69 348.02 352.08 348.02"/>
<polygon points="308.67 359.1 307.82 356.22 302.54 356.22 303.35 359.1"/>
<polygon points="350.14 346.8 348.85 344.12 342.69 344.12 343.91 346.8"/>
<polygon points="316.56 359.1 315.68 356.22 309.09 356.22 309.94 359.1"/>
<polygon points="357 346.8 355.48 344.12 350.2 344.12 351.49 346.8"/>
<polygon points="305.07 346.8 304.29 344.12 299.17 344.12 299.92 346.8"/>
<polygon points="265.7 359.1 265.37 356.22 259.05 356.22 259.16 359.1"/>
<polygon points="171.9 352.12 171.26 353.62 170.67 355 177.14 355 178.3 352.12"/>
<polygon points="272.72 355 272.23 352.12 266.12 352.12 266.46 355"/>
<polygon points="169.34 355 170.58 352.12 164.19 352.12 163.51 353.63 162.88 355"/>
<polygon points="223.25 348.02 222.6 350.9 228.64 350.9 229.21 348.02"/>
<polygon points="230.45 348.02 229.88 350.9 235.93 350.9 236.42 348.02"/>
<polygon points="194.76 352.12 193.88 355 200.45 355 201.29 352.12"/>
<polygon points="179.61 352.12 178.46 355 184.9 355 185.93 352.12"/>
<polygon points="202.56 352.12 201.72 355 206.98 355 207.78 352.12"/>
<polygon points="258.88 352.12 259 355 265.23 355 264.89 352.12"/>
<polygon points="187.23 352.12 186.19 355 192.6 355 193.48 352.12"/>
<polygon points="264.27 346.8 263.96 344.12 258.56 344.12 258.67 346.8"/>
<polygon points="280.92 359.1 280.35 356.22 274.16 356.22 274.65 359.1"/>
<polygon points="251.84 344.12 251.74 346.8 257.45 346.8 257.34 344.12"/>
<polygon points="251.69 348.02 251.57 350.9 257.61 350.9 257.5 348.02"/>
<polygon points="264.75 350.9 264.42 348.02 258.72 348.02 258.83 350.9"/>
<polygon points="271.32 346.8 270.86 344.12 265.19 344.12 265.5 346.8"/>
<polygon points="251.52 352.12 251.4 355 257.78 355 257.66 352.12"/>
<polygon points="251.36 356.22 251.24 359.1 257.94 359.1 257.83 356.22"/>
<polygon points="250.52 346.8 250.62 344.12 245.22 344.12 244.91 346.8"/>
<polygon points="237.87 346.8 243.68 346.8 244 344.12 238.32 344.12"/>
<polygon points="280.11 355 279.54 352.12 273.46 352.12 273.95 355"/>
<polygon points="222.33 352.12 221.68 355 227.83 355 228.4 352.12"/>
<polygon points="144.54 360.32 143.12 362.84 149.97 362.84 151.18 360.32"/>
<polygon points="307.47 355 306.62 352.12 301.4 352.12 302.21 355"/>
<polygon points="303.69 360.32 304.39 362.84 309.76 362.84 309.02 360.32"/>
<polygon points="294 355 293.27 352.12 288.11 352.12 288.76 355"/>
<polygon points="250.02 359.1 250.14 356.22 243.82 356.22 243.48 359.1"/>
<polygon points="326.2 360.32 327.11 362.84 333.87 362.84 332.86 360.32"/>
<polygon points="346.3 355 344.99 352.12 338.61 352.12 339.84 355"/>
<polygon points="334.17 360.32 335.18 362.84 341.87 362.84 340.79 360.32"/>
<polygon points="236.26 356.22 235.77 359.1 242.25 359.1 242.59 356.22"/>
<polygon points="146.86 356.22 145.23 359.1 151.77 359.1 153.16 356.22"/>
<polygon points="267.07 360.32 267.37 362.84 274.05 362.84 273.62 360.32"/>
<polygon points="168.4 360.32 167.32 362.84 174 362.84 175.01 360.32"/>
<polygon points="249.97 360.32 243.34 360.32 243.04 362.84 249.87 362.84"/>
<polygon points="338.51 355 337.28 352.12 330.89 352.12 332.04 355"/>
<polygon points="152.53 360.32 151.32 362.84 157.98 362.84 159.12 360.32"/>
<polygon points="280.78 352.12 281.36 355 287.51 355 286.86 352.12"/>
<polygon points="310.29 360.32 311.03 362.84 317.71 362.84 316.93 360.32"/>
<polygon points="282.41 360.32 282.9 362.84 289.27 362.84 288.7 360.32"/>
<polygon points="315.31 355 314.43 352.12 307.9 352.12 308.74 355"/>
<polygon points="322.99 355 321.96 352.12 315.7 352.12 316.58 355"/>
<polygon points="274.86 360.32 275.29 362.84 281.66 362.84 281.16 360.32"/>
<polygon points="318.21 360.32 318.98 362.84 325.81 362.84 324.91 360.32"/>
<polygon points="151.5 348.02 149.87 350.9 155.72 350.9 157.1 348.02"/>
<polygon points="350.06 360.32 351.21 362.84 357.86 362.84 356.65 360.32"/>
<polygon points="153.7 344.12 152.19 346.8 157.69 346.8 158.98 344.12"/>
<polygon points="330.73 355 329.57 352.12 323.25 352.12 324.29 355"/>
<polygon points="233.9 362.84 234.32 360.32 176.33 360.32 175.32 362.84"/>
<polygon points="289.95 360.32 290.52 362.84 295.97 362.84 295.34 360.32"/>
<polygon points="244.43 350.9 250.35 350.9 250.47 348.02 244.77 348.02"/>
<polygon points="362.32 356.22 356.03 356.22 359.22 362.84 366.07 362.84"/>
<polygon points="355.44 355 361.63 355 360 352.12 354.06 352.12"/>
<polygon points="354.09 355 352.7 352.12 346.33 352.12 347.64 355"/>
<polygon points="241.82 362.84 242.11 360.32 235.56 360.32 235.13 362.84"/>
<polygon points="251.19 360.32 251.09 362.84 266.14 362.84 265.85 360.32"/>
<polygon points="342.12 360.32 343.19 362.84 349.87 362.84 348.72 360.32"/>
<polygon points="300.94 355 300.14 352.12 294.53 352.12 295.26 355"/>
<polygon points="296.59 360.32 297.23 362.84 303.12 362.84 302.42 360.32"/>
<polygon points="149.18 352.12 147.55 355 153.74 355 155.13 352.12"/>
<polygon points="165.27 346.8 166.49 344.12 160.34 344.12 159.05 346.8"/>
<polygon points="160.46 360.32 159.32 362.84 165.99 362.84 167.07 360.32"/>
<polygon points="250.18 355 250.3 352.12 244.29 352.12 243.96 355"/>
<polygon points="272.92 356.22 266.6 356.22 266.93 359.1 273.42 359.1"/>
</g>
<path d="m292.8 384.32h-76.415c-.325 0-.622-.15-.815-.411s-.248-.589-.153-.9l4.858-15.788c.132-.428.521-.714.968-.714h66.7c.447 0 .836.287.968.714l4.858 15.788c.096.311.04.639-.153.9-.194.261-.491.411-.816.411zm-71.558-16.91c-.049 0-.09.031-.105.078l-4.857 15.788c-.014.043.001.077.016.097s.042.044.088.044h76.416c.046 0 .073-.024.088-.044s.03-.054.017-.097l-4.858-15.789c-.014-.045-.057-.077-.105-.077h-66.7z" fill="#7B70EE"/>
<polygon points="291.7 223.5 208.69 236.6 288.5 276.53 371.17 264.24" fill="#1C1C84"/>
<polygon points="208.69 236.6 208.69 238.5 288.56 280.24 371.17 266.05 371.17 264.24 288.5 276.53" fill="#2525AD"/>
<path d="m239.57 281.52-1.272 8.439s34.085 27.367 82.146 13.911l.736-6.594c-42.482 7.108-69.224-6.663-81.61-15.756z" fill="#2525AD"/>
<path d="m340.77 325.96c-4.448-3.528-7.599-8.732-9.1-14.207-.111-.406-.653-.259-.716.089-.101-.135-.304-.154-.467-.069-.078-.282-.537-.411-.713-.07-3.05 5.913-.694 12.592 1.347 18.441.16.46.669.212.508-.249-1.597-4.578-3.307-9.704-2.335-14.527-.542 6.098 1.49 12.343 5.212 17.182.269.349.686-.07.416-.422-3.379-4.393-5.125-9.968-4.945-15.505.104 2.181.442 4.356 1.14 6.413 1.069 3.151 2.856 6.159 4.645 8.949.263.411.678-.012.415-.422-1.719-2.682-3.202-5.563-4.275-8.574-.46-1.29-.762-2.642-.955-4.013 1.028 4.435 3.17 8.605 6.249 11.99.324.356.753.04.425-.321-3.374-3.709-5.402-8.458-6.239-13.358 1.238 4.589 3.522 8.929 6.539 12.657.305.377.623-.032.315-.413-2.945-3.639-4.892-7.894-6.108-12.371 1.638 4.618 3.764 9.073 7.519 12.357.368.322.77-.051.403-.372-2.579-2.256-4.279-5.303-5.665-8.359 1.504 2.672 3.312 5.169 5.41 7.426.332.357.612-.211.284-.564-1.846-1.985-3.262-4.184-4.634-6.509 1.413 1.893 3.055 3.617 4.915 5.092.38.303.793.033.41-.271z" fill="#F0C64B"/>
<path d="m332.95 262.06c-1.734-2.072-4.075-3.434-6.473-4.597-4.769-2.312-10.066-3.317-15.235-4.295-7.306-1.382-14.78-2.662-20.855-7.266-.236-.179-.464-.089-.6.093-.012.011-.02.025-.03.037-.004.007-.009.011-.013.018-.146.18-.186.439.031.646 4.452 4.256 10.404 6.363 16.263 7.846 5.921 1.499 11.964 2.525 17.631 4.878l.528.219c.034.014.221.1.223.099.29.141.577.286.866.429 1.061.526 2.094 1.071 3.065 1.754 1.164.819 2.242 1.822 2.99 3.041.818 1.333 1.102 2.828 1.072 4.378-.031 1.613-.33 3.217-.592 4.805-.271 1.645-.515 3.294-.768 4.941-.523 3.406-1.01 6.814-1.378 10.24-.809 7.542-1.03 15.235.326 22.73.101.556 1.034.434.992-.134-.527-7.113.053-14.245 1.051-21.292.497-3.507 1.099-7 1.712-10.489.575-3.275 1.335-6.576 1.604-9.894.244-3.009-.453-5.848-2.41-8.187z" fill="#F0C64B"/>
<path d="m329.62 312.59c.086-.042.173-.08.261-.117.053-.021.051-.02-.008.002.026-.009.051-.019.077-.027.039-.013.078-.026.117-.038.189-.058.382-.1.578-.128.047-.007.095-.015.142-.018-.132.007.022 0 .048-.002.095-.005.191-.007.286-.005s.19.007.285.016c.047.005.095.01.142.016.027.004.054.007.081.012-.066-.012-.07-.013-.013-.002.139.026.261.033.391-.036.107-.057.211-.173.243-.293.064-.237-.051-.582-.329-.634-.949-.177-1.907-.065-2.778.362-.238.117-.343.454-.207.684.143.243.43.333.684.208z" fill="#D8A32B"/>
<path d="m329.52 311.6c.086-.042.173-.08.261-.117.053-.021.051-.02-.008.002.026-.009.051-.018.077-.027.039-.013.078-.026.117-.038.189-.058.382-.101.578-.128.047-.007.095-.015.142-.018-.132.007.022 0 .048-.002.095-.005.191-.007.286-.005s.191.007.285.017c.048.005.095.01.142.016.027.004.054.008.081.012-.066-.012-.071-.013-.013-.002.139.026.261.033.391-.036.107-.057.212-.174.243-.293.064-.237-.051-.583-.329-.634-.95-.177-1.907-.065-2.778.362-.237.117-.343.455-.207.684.143.242.429.332.684.207z" fill="#D8A32B"/>
<polygon points="323.67 277.42 324.09 274.14 288.56 280.24 243.85 256.87 242.89 262.39 287.67 284.93" fill="#0C0C5B"/>
<path d="m287.67 284.93-44.783-22.545-3.321 19.134c12.386 9.093 39.128 22.864 81.61 15.757l2.495-19.859-36.001 7.513z" fill="#1C1C84"/>
<path d="m233.38 310.89c1.982 5.339-2.277 11.844-9.512 14.53s-11.365-.701-14.259-5.606c-4.233-7.174-.153-11.043 7.082-13.729 7.236-2.685 14.707-.534 16.689 4.805z" fill="#FFF6DC"/>
<path d="m161.14 252.09s17.955 18.49 32.668 51.677c0 0 6.978 18.016 11.556 22.52 0 0-3.705-4.175 1.953-10.841 4.156-4.896 10.217-7.896 16.634-8.123 3.585-.127 7.331.623 9.463 3.637 0 0-23.946-28.208-39.591-52.547-6.251-9.724-9.21-17.758-10.509-23.9 0 0-1.179-1.387-3.528-2.547-8.638-4.266-18.813 1.476-20.32 10.991-.141.888-.229 1.834-.252 2.84 0 0-.124 4.217 1.926 6.293z" fill="#fff"/>
<path d="m205.36 326.29s7.859 9.482 25.657-1.896c0 0 11.016-7.349 5.517-20.15 0 0-11.424-8.516-20.432-19.311s-20.15-25.492-29.395-44.931l-2.357-1.426s1.699 9.218 12.702 24.751c11.003 15.534 31.3 41.54 31.3 41.54l3.104 3.74c1.782 2.147 2.394 5.096 1.41 7.707-1.402 3.718-5.515 8.122-17 8.79l-7.172-11.135c0 .001-6.964 5.768-3.334 12.321z" fill="#F4E7BD"/>
<path d="m222.74 292.15s-20.627-21.509-35.087-55.556c0 0-2.608-4.145-4.267-6.058 0-.001 12.57 38.854 39.354 61.614z" fill="#fff"/>
<path d="m184.81 285.91c4.34-7.827 13.717-13.004 22.644-12.556 3.177.159 3.168-3.792 0-3.951-10.587-.531-21.083 4.753-26.217 14.015 0-.001 2.03 5.275 3.573 2.492z" fill="#F0C64B"/>
<path d="m152.85 300.3h-40.483c-5.367 0-9.758-4.391-9.758-9.758v-21.083c0-5.367 4.391-9.758 9.758-9.758h40.483c5.367 0 9.758 4.391 9.758 9.758v21.083c0 5.367-4.391 9.758-9.758 9.758z" fill="#2525AD"/>
<polygon points="126.17 280 126.17 272.56 132.61 276.28 139.05 280 132.61 283.72 126.17 287.44" fill="#D5CBFB"/>
<path d="m120.89 210.76c0-12.396-10.049-22.444-22.444-22.444s-22.444 10.048-22.444 22.444c0 8.984 5.28 16.731 12.905 20.317v7.158h19.079v-7.158c7.624-3.586 12.904-11.333 12.904-20.317z" fill="#fff"/>
<path d="m108.6 241.93h-20.308c-1.018 0-1.85-.832-1.85-1.85s.832-1.85 1.85-1.85h20.309c1.017 0 1.85.832 1.85 1.85-.001 1.018-.833 1.85-1.851 1.85z" fill="#F0C64B"/>
<path d="m98.444 252.43c-4.098 0-7.42-3.322-7.42-7.42v-1.227h14.841v1.227c-.001 4.098-3.323 7.42-7.421 7.42z" fill="#F0C64B"/>
<path d="m108.6 245.63h-20.308c-1.018 0-1.85-.833-1.85-1.85s.832-1.85 1.85-1.85h20.309c1.017 0 1.85.832 1.85 1.85-.001 1.018-.833 1.85-1.851 1.85z" fill="#D8A32B"/>
<path d="m100.48 238.23h-1.052v-31.18c0-.545-.444-.989-.989-.989-.546 0-.99.444-.99.989v31.18h-1.052v-31.18c0-1.126.916-2.041 2.042-2.041s2.041.915 2.041 2.041v31.18z" fill="#F0C64B"/>
<g fill="#7B70EE">
<path d="m63.167 203.11-.616 3.212 9.381 1.798c.126-1.096.318-2.171.572-3.223l-9.337-1.787z"/>
<path d="m70.598 188.31-1.978 2.609 7.482 5.664c.599-.915 1.253-1.792 1.957-2.624l-7.461-5.649z"/>
<path d="m83.713 178.32-2.922 1.471 4.206 8.338c.939-.549 1.912-1.045 2.919-1.478l-4.203-8.331z"/>
<path d="m134.34 206.32-.616-3.212-9.338 1.787c.254 1.051.447 2.127.572 3.223l9.382-1.798z"/>
<path d="m128.27 190.92-1.978-2.609-7.461 5.649c.704.833 1.357 1.709 1.957 2.624l7.482-5.664z"/>
<path d="m116.1 179.79-2.922-1.471-4.204 8.332c1.007.433 1.98.929 2.919 1.478l4.207-8.339z"/>
<path d="m100.12 184.55-.081-9.492-3.273.03.082 9.456c.53-.031 1.062-.052 1.599-.052.563.001 1.12.024 1.673.058z"/>
</g>
<rect x="335.12" y="382.18" width="94.85" height="18.701" fill="#F0C64B"/>
<g fill="#D8A32B">
<rect x="340.46" y="382.18" width="3.82" height="18.701"/>
<rect x="346.2" y="382.18" width="3.821" height="18.701"/>
<rect x="415.08" y="382.18" width="3.821" height="18.701"/>
<rect x="420.81" y="382.18" width="3.821" height="18.701"/>
</g>
<path d="m439.1 371.76v-2.877c0-4.089-3.327-7.415-7.415-7.415h-84.536v17.708h84.536c4.088 0 7.415-3.327 7.415-7.416z" fill="#fff"/>
<path d="m431.68 358.35h-85.089v3.116h85.089c4.089 0 7.415 3.327 7.415 7.415v2.877c0 4.089-3.327 7.415-7.415 7.415h-85.089v3.116h85.089c5.807 0 10.531-4.724 10.531-10.531v-2.877c0-5.807-4.724-10.531-10.531-10.531z" fill="#2525AD"/>
<g fill="#F5F5FF">
<rect x="347.15" y="365.43" width="86.192" height="1.417"/>
<rect x="347.15" y="369.7" width="86.192" height="1.417"/>
<rect x="347.15" y="373.96" width="86.192" height="1.417"/>
</g>
<path d="m339.9 348.98v-2.591c0-3.682 2.995-6.677 6.677-6.677h76.12v15.945h-76.12c-3.681 0-6.677-2.995-6.677-6.677z" fill="#fff"/>
<path d="m346.58 336.9h76.618v2.806h-76.618c-3.682 0-6.677 2.995-6.677 6.677v2.591c0 3.682 2.995 6.677 6.677 6.677h76.618v2.806h-76.618c-5.229 0-9.483-4.254-9.483-9.483v-2.591c0-5.229 4.254-9.483 9.483-9.483z" fill="#F0C64B"/>
<g fill="#F5F5FF">
<rect transform="matrix(-1 -1.2246e-16 1.2246e-16 -1 767.79 687.83)" x="345.09" y="343.28" width="77.611" height="1.276"/>
<rect transform="matrix(-1 -1.2246e-16 1.2246e-16 -1 767.79 695.52)" x="345.09" y="347.12" width="77.611" height="1.276"/>
<rect transform="matrix(-1 -1.2246e-16 1.2246e-16 -1 767.79 703.2)" x="345.09" y="350.96" width="77.611" height="1.276"/>
</g>
<path d="m186.96 138.06c3.583 0 6.487 2.816 6.487 6.289v.957c1.305 3.671 2.099 8.449 2.099 13.688s-.795 10.016-2.099 13.688v.957c0 3.473-2.904 6.289-6.487 6.289-4.742 0-8.586-9.372-8.586-20.934-.001-11.562 3.844-20.934 8.586-20.934z" fill="#F0C64B"/>
<path d="m181.29 159.26c0 7.072.548 12.806 1.223 12.806.676 0 1.223-5.733 1.223-12.806 0-7.072-.548-12.806-1.223-12.806-.675.001-1.223 5.734-1.223 12.806z" fill="#D8A32B"/>
<path d="m202.53 149.51v19.505c-.442 4.826-4.881 9.299-10.831 10.915v-41.335c5.95 1.616 10.389 6.089 10.831 10.915z" fill="#7B70EE"/>
<path d="m191.7 182.17c.969 0 1.761-.768 1.761-1.707v-42.401c0-.939-.793-1.708-1.761-1.708-.969 0-1.761.768-1.761 1.708v42.401c-.001.939.792 1.707 1.761 1.707z" fill="#2525AD"/>
<path d="m153.26 138.06c-3.583 0-6.487 2.816-6.487 6.289v.957c-1.305 3.671-2.099 8.449-2.099 13.688s.795 10.016 2.099 13.688v.957c0 3.473 2.904 6.289 6.487 6.289 4.742 0 8.586-9.372 8.586-20.934s-3.844-20.934-8.586-20.934z" fill="#F0C64B"/>
<path d="m158.93 159.26c0 7.072-.548 12.806-1.223 12.806s-1.223-5.733-1.223-12.806c0-7.072.548-12.806 1.223-12.806.675.001 1.223 5.734 1.223 12.806z" fill="#D8A32B"/>
<path d="m137.69 149.51v19.505c.442 4.826 4.881 9.299 10.831 10.915v-41.335c-5.95 1.616-10.389 6.089-10.831 10.915z" fill="#7B70EE"/>
<path d="m148.52 182.17c-.969 0-1.761-.768-1.761-1.707v-42.401c0-.939.792-1.708 1.761-1.708s1.761.768 1.761 1.708v42.401c0 .939-.793 1.707-1.761 1.707z" fill="#2525AD"/>
<path d="m191.86 112.26c-3.519-2.905-8.134-4.744-12.511-5.818-4.494-1.103-9.188-1.385-13.783-.852-1.387.161-2.768.378-4.134.666-.935.197-1.962.351-2.829.762-.906.43-1.794.904-2.69 1.356-2.426 1.223-4.853 2.446-7.279 3.669-.966.487-.852 1.9 0 2.416 2.243 1.36 4.812 1.534 7.352 1.129 1.786-.285 3.417-.948 5.112-1.535 3.045-1.055 6.335-1.571 9.551-1.586 2.867-.013 5.775.416 8.424 1.549 3.919 1.688 8.607 2.811 12.504.443.708-.432.999-1.608.283-2.199z" fill="#7B70EE"/>
<path d="m170.72 104.04.006-.031c-.205 0-.407.012-.612.015-.204-.003-.406-.015-.612-.015l.006.031c-20.204.644-36.388 17.214-36.388 37.574v22.818c0 2.534 2.054 4.589 4.589 4.589v-22.496l-.099-.585c-1.546-9.123.431-18.618 5.997-26.009 2.6-3.452 6.122-6.703 10.89-9.052.057-.028.113-.055.17-.083 9.715-4.736 21.18-4.736 30.895 0 .057.028.113.055.17.083 4.797 2.363 8.332 5.639 10.936 9.113 5.534 7.385 7.493 16.856 5.95 25.954l-.098.58v22.496c2.534 0 4.589-2.054 4.589-4.589v-22.818c-.001-20.361-16.185-36.931-36.389-37.575z" fill="#2525AD"/>
<rect x="388.47" y="185.82" width="59.667" height="86.288" fill="#D5CBFB"/>
<g fill="#7B70EE">
<rect x="394.91" y="198.48" width="46.786" height="1.91"/>
<rect x="394.91" y="207.24" width="46.786" height="1.91"/>
<rect x="394.91" y="216.01" width="46.786" height="1.91"/>
<rect x="394.91" y="224.78" width="46.786" height="1.91"/>
<rect x="394.91" y="233.54" width="46.786" height="1.91"/>
<rect x="394.91" y="242.31" width="46.786" height="1.91"/>
</g>
<rect x="394.91" y="263.61" width="46.786" height=".526" fill="#fff"/>
<path d="m401.31 255.32c2.39.402 4.817.522 7.233.312 2.232-.194 4.602-.57 6.684-1.428 1.482-.611 3.097-2.285 2.057-3.977-.916-1.491-3.215-1.643-4.738-1.281-1.776.423-3.356 1.586-4.436 3.038-1.081 1.453-1.833 3.548-.554 5.12 1.182 1.452 3.346 1.743 5.089 1.501.979-.136 1.933-.46 2.79-.956.4-.232.771-.506 1.126-.801.464-.384.951-.894 1.578-.981.753-.105.926.465 1.405.875.333.285.761.381 1.19.338.529-.054 1.01-.282 1.5-.471.617-.239 1.227-.328 1.888-.313 2.846.068 5.715.446 8.552.677.506.041.504-.432 0-.473-2.112-.172-4.225-.659-6.337-.83-.964-.078-1.955-.226-2.923-.147-.91.075-1.641.547-2.512.734-.979.209-1.114-.775-1.898-1.077-.696-.267-1.462-.042-2.057.356-.726.485-1.317 1.117-2.093 1.536-.87.469-1.852.751-2.839.811-1.6.097-3.982-.391-4.319-2.284-.308-1.727 1.125-3.51 2.373-4.529 1.282-1.047 3.012-1.74 4.683-1.434.795.146 1.833.52 2.028 1.412.227 1.041-.693 1.881-1.528 2.29-.975.478-2.102.722-3.156.957-1.17.261-2.355.445-3.55.549-2.343.203-4.704.317-7.023-.074-.5-.084-.714.466-.213.55z" fill="#7B70EE"/>
<path d="m468.08 238.2-10.489-5.691 3.083-5.683c.667-1.23 2.205-1.686 3.435-1.019l6.035 3.275c1.23.667 1.686 2.205 1.019 3.435l-3.083 5.683z" fill="#D5CBFB"/>
<rect transform="matrix(.8789 .4769 -.4769 .8789 180.31 -181.14)" x="440.99" y="232.85" width="11.934" height="63.528" fill="#2525AD"/>
<rect transform="matrix(.8789 .4769 -.4769 .8789 180.31 -181.13)" x="444.83" y="232.85" width="4.262" height="63.528" fill="#1C1C84"/>
<rect transform="matrix(.8789 .4769 -.4769 .8789 168.31 -192.22)" x="455.4" y="234.01" width="14.775" height="2.856" fill="#F0C64B"/>
<polygon points="437.06 295.38 426.57 289.69 425.5 299.2 429.66 301.46" fill="#D5CBFB"/>
<polygon points="429.66 301.46 425.5 299.2 424.8 305.44" fill="#2525AD"/>
<g fill="none" stroke-miterlimit="10">
<g stroke="#7B70EE" strokeWidth="2.1457">
<line x1="92.965" x2="103.7" y1="141.24" y2="151.98"/>
<line x1="103.91" x2="93.181" y1="141.24" y2="151.98"/>
</g>
<g stroke="#7B70EE" strokeWidth="2.1457">
<line x1="454.04" x2="464.77" y1="302.23" y2="312.96"/>
<line x1="464.98" x2="454.25" y1="302.23" y2="312.96"/>
</g>
<g stroke="#2525AD" strokeWidth="1.9001">
<line x1="62.68" x2="72.185" y1="264.62" y2="274.12"/>
<line x1="72.375" x2="62.871" y1="264.62" y2="274.12"/>
</g>
<path d="m57.644 185.82c0 4.29-3.478 7.768-7.768 7.768s-7.768-3.478-7.768-7.768 3.478-7.768 7.768-7.768c4.29-.001 7.768 3.477 7.768 7.768z" stroke="#7B70EE" strokeWidth="2.1457"/>
<circle cx="361.63" cy="172.07" r="7.768" stroke="#7B70EE" strokeWidth="2.1457"/>
<path d="m397.07 161.24c0 1.09-.884 1.974-1.974 1.974s-1.974-.884-1.974-1.974.884-1.974 1.974-1.974 1.974.884 1.974 1.974z" stroke="#2525AD" strokeWidth="1.9001"/>
<path d="m206.72 95.422c0 1.09-.884 1.974-1.974 1.974s-1.974-.884-1.974-1.974.884-1.974 1.974-1.974 1.974.884 1.974 1.974z" stroke="#2525AD" strokeWidth="1.9001"/>
</g>
<path d="m80.768 345.92v4.668c-6.272.353-11.27 5.553-11.27 11.912v3.972c0 6.516 5.246 11.821 11.734 11.935 2.356 12.782 13.55 22.469 27.014 22.469 15.176 0 27.478-12.302 27.478-27.478v-27.478h-54.956zm-7.409 20.551v-3.972c0-4.23 3.267-7.706 7.409-8.051v18.949c0 .378.013.752.028 1.126-4.155-.331-7.437-3.812-7.437-8.052z" fill="#2525AD"/>
<path d="m122.04 314.64c-3.496-1.803-8.089-.953-10.899 1.8-.504-4.01-4.315-7.04-8.311-7.638-3.997-.598-8.052.803-11.559 2.812-3.439 1.97-6.65 4.703-8.091 8.395s-.634 8.451 2.631 10.697c1.326.912 3.016 1.169 4.603.903.209 1.256.706 2.454 1.523 3.447 2.723 3.311 8.345 3.638 11.434.666 2.344 2.074 5.942 2.598 8.78 1.278.617-.287 1.188-.662 1.707-1.099-.209 2.751-1.254 5.444-3.014 7.572 3.409-1.186 6.324-3.728 7.962-6.945 1.074-2.109 1.579-4.492 1.512-6.856 2.654-.511 5.089-2.453 5.953-5.051 1.243-3.734-.734-8.179-4.231-9.981z" fill="#D5CBFB"/>
<g fill="#2525AD">
<path d="m245.36 149.69-.005-.001c-.142-.012-.29-.019-.44-.019-2.924 0-5.303 2.379-5.303 5.303s2.379 5.303 5.303 5.303c.15 0 .296-.006.433-.018 2.733-.225 4.87-2.546 4.87-5.285 0-2.738-2.134-5.059-4.858-5.283z"/>
<path d="m263.94 154.98c0-.916-.357-1.777-1.006-2.426-.648-.648-1.51-1.005-2.426-1.005h-1.964l-.202-.664c-.263-.866-.613-1.709-1.038-2.506l-.327-.612 1.39-1.39c1.338-1.338 1.338-3.515 0-4.853-.648-.648-1.51-1.005-2.427-1.005s-1.778.357-2.426 1.004l-1.39 1.39-.612-.327c-.797-.426-1.64-.775-2.506-1.038l-.663-.202v-1.964c0-1.625-1.156-3.04-2.748-3.363-.224-.045-.455-.068-.683-.068-.916 0-1.778.357-2.426 1.005-.648.649-1.005 1.51-1.005 2.426v1.964l-.663.202c-.866.263-1.709.613-2.506 1.038l-.612.327-1.39-1.39c-1.337-1.337-3.515-1.337-4.853 0-.647.648-1.004 1.51-1.004 2.427s.357 1.778 1.005 2.426l1.39 1.39-.327.612c-.426.797-.775 1.64-1.039 2.506l-.202.664h-1.964c-1.892 0-3.431 1.539-3.431 3.431 0 .916.357 1.778 1.005 2.426s1.51 1.005 2.426 1.005h1.964l.202.663c.264.866.613 1.709 1.039 2.506l.327.612-1.39 1.39c-1.338 1.338-1.338 3.515 0 4.853.648.647 1.509 1.004 2.427 1.004.917 0 1.778-.357 2.426-1.005l1.39-1.39.612.327c.797.426 1.64.775 2.506 1.039l.663.202v1.964c0 1.892 1.539 3.431 3.431 3.431.222 0 .447-.022.667-.065l.105-.022c.626-.144 1.196-.46 1.654-.918.648-.649 1.005-1.51 1.005-2.426v-1.964l.663-.202c.866-.263 1.709-.613 2.506-1.039l.612-.327 1.39 1.391c.646.646 1.508 1.002 2.426 1.002s1.78-.356 2.427-1.003c.647-.648 1.004-1.51 1.004-2.427 0-.916-.357-1.778-1.005-2.426l-1.39-1.389.327-.612c.426-.797.775-1.641 1.039-2.506l.202-.663h1.964c1.891.001 3.431-1.538 3.431-3.43zm-11.93 6.566c-1.648 1.781-3.884 2.872-6.296 3.07-.258.022-.53.034-.803.034-5.332 0-9.67-4.338-9.67-9.67s4.338-9.67 9.67-9.67c.274 0 .548.012.814.035 2.403.197 4.637 1.287 6.286 3.069 1.658 1.792 2.571 4.124 2.571 6.567-.001 2.442-.914 4.774-2.572 6.565z"/>
</g>
<g fill="#2525AD">
<path d="m392.19 304.38-.002.003c-.041.084-.079.172-.115.263-.686 1.781.205 3.789 1.987 4.474 1.781.686 3.789-.206 4.474-1.987.035-.091.065-.181.09-.268.504-1.718-.409-3.564-2.077-4.206-1.667-.642-3.582.114-4.357 1.721z"/>
<path d="m399.76 294.29c-.558-.215-1.167-.199-1.714.043-.547.243-.966.684-1.181 1.242l-.461 1.197-.452-.033c-.589-.043-1.185-.027-1.77.045l-.449.056-.521-1.173c-.501-1.129-1.827-1.639-2.956-1.138-.547.243-.966.684-1.181 1.243-.215.558-.2 1.167.043 1.713l.521 1.173-.343.296c-.446.386-.857.817-1.22 1.283l-.279.357-1.197-.461c-.99-.381-2.123-.009-2.693.885-.08.126-.148.261-.202.4-.215.558-.199 1.167.043 1.714.243.547.684.967 1.242 1.181l1.197.461-.033.452c-.043.589-.027 1.185.045 1.77l.056.45-1.173.521c-1.128.501-1.639 1.827-1.138 2.956.243.546.684.966 1.243 1.181.558.215 1.167.2 1.714-.043l1.173-.521.296.343c.385.446.817.857 1.283 1.22l.357.279-.461 1.197c-.444 1.153.133 2.451 1.286 2.895.558.215 1.167.199 1.714-.043.547-.243.966-.684 1.181-1.242l.461-1.197.452.033c.589.043 1.185.027 1.77-.045l.449-.056.521 1.173c.501 1.129 1.827 1.639 2.956 1.138.546-.243.966-.684 1.181-1.243.215-.558.2-1.167-.043-1.714l-.521-1.173.343-.296c.446-.386.857-.817 1.22-1.283l.279-.357 1.197.461c1.153.444 2.451-.133 2.895-1.286.052-.135.091-.277.117-.422l.011-.069c.059-.415 0-.837-.172-1.223-.243-.547-.684-.967-1.242-1.181l-1.197-.461.033-.452c.042-.589.027-1.185-.045-1.77l-.056-.45 1.173-.521c.545-.242.964-.684 1.18-1.243.215-.559.2-1.168-.042-1.714-.243-.546-.684-.966-1.243-1.181-.558-.215-1.167-.2-1.714.043l-1.172.521-.296-.343c-.386-.446-.818-.857-1.283-1.22l-.357-.279.461-1.197c.443-1.149-.133-2.448-1.286-2.892zm1.203 8.808c.699 1.422.838 3.04.394 4.556-.047.163-.104.331-.168.497-1.251 3.248-4.911 4.874-8.159 3.623s-4.874-4.911-3.623-8.159c.064-.167.136-.331.212-.487.684-1.418 1.872-2.523 3.344-3.109 1.48-.59 3.115-.599 4.603-.026 1.488.571 2.694 1.675 3.397 3.105z"/>
</g>
</g>
</svg>
